<svg width="80" height="80" viewBox="0 0 80 80" fill="none" xmlns="http://www.w3.org/2000/svg">
<path fill-rule="evenodd" clip-rule="evenodd" d="M49.7951 50.534C51.2967 49.8655 52.7226 49.1155 54.0653 48.2968C57.5391 46.2341 60.5516 43.6289 62.8327 40.6749L63.938 41.0764C63.8678 41.1673 63.797 41.2579 63.7255 41.3481C63.1251 42.1061 62.4788 42.8417 61.7908 43.5517C58.7586 46.6814 54.917 49.316 50.6254 51.1977C50.3493 50.9816 50.0712 50.759 49.7951 50.534ZM40.9198 53.2416C34.4335 54.3528 28.2175 53.5588 23.4377 51.1138C25.4532 52.3043 27.7889 53.1904 30.3693 53.7235C30.4928 53.749 30.6167 53.7737 30.741 53.7975C34.1336 54.4479 37.8027 54.4689 41.5039 53.8839C41.2993 53.6661 41.1042 53.4518 40.9198 53.2416Z" fill="white"/>
<path fill-rule="evenodd" clip-rule="evenodd" d="M47.8185 59.5864C46.6981 59.8962 45.5642 60.164 44.419 60.3875C30.6122 63.0824 18.6523 58.6563 12.2983 49.8296C15.2977 54.6676 19.8887 58.3839 25.6382 60.5275L25.7249 60.5597L25.7935 60.5849C32.8275 63.1635 41.1207 63.2306 49.3584 60.8226C48.8564 60.4254 48.34 60.0115 47.8185 59.5864ZM59.8932 56.3181C63.8668 54.0419 67.5385 51.2215 70.7463 47.9808C72.5471 46.1615 74.2016 44.2097 75.6814 42.1474C75.7245 42.0873 75.7675 42.0271 75.8103 41.9668L74.3569 41.2749C73.5776 42.3278 72.7501 43.3543 71.8781 44.3506C68.011 48.8986 63.2199 52.7433 57.9122 55.5733C58.6096 55.871 59.2703 56.1165 59.8932 56.3181Z" fill="white"/>
<path d="M32.0863 17.9461L20.8198 47.2907C20.7328 47.5172 20.7308 47.7688 20.8523 47.9789C21.0807 48.3739 21.57 49.0473 22.4823 49.6174C23.2289 50.0841 23.9505 50.35 24.4581 50.4962C24.878 50.6171 25.299 50.3896 25.4837 49.9936L41.6671 15.3109C41.8203 14.9826 42.1367 14.7635 42.499 14.7609C45.0092 14.7428 54.7394 15.3175 54.2926 25.3489C54.2913 25.3785 54.2891 25.4061 54.2843 25.4353C54.2028 25.9341 53.2617 30.9223 47.8105 33.7576C43.1114 36.2018 37.4678 37.4093 35.5721 37.7675C35.1738 37.8427 34.8604 38.1402 34.8418 38.5452C34.7473 40.5932 35.3866 47.2919 45.7559 57.0718C58.3294 68.9306 64.8631 63.9055 67.6003 60.8786C69.9613 58.2678 70.722 54.4546 70.1048 54.5837C57.2974 57.2625 56.377 56.0504 50.0619 51.8828C45.9878 49.1941 41.6594 43.1834 42.002 42.332C42.3446 41.4807 61.6624 39.4395 65.38 24.9429C69.0977 10.4463 49.5968 8.33734 39.9926 8.91218C30.6944 9.46871 22.5256 13.5407 22.0146 13.7995C21.9974 13.8082 21.9863 13.8137 21.9687 13.8217C21.421 14.0681 10.1122 19.2264 5.58623 26.9439C3.14687 31.1034 1.82359 35.8011 5.16106 39.2812C6.88422 41.078 9.06725 42.0048 12.8342 41.4043C15.1667 41.0325 16.9795 41.0039 17.1455 39.4423C17.4625 36.4623 12.5296 37.9468 13.0158 30.5399C13.2484 26.9973 15.4618 25.3697 18.1459 22.711C21.4266 19.4613 27.8563 17.476 30.9689 16.6652C31.7333 16.466 32.3695 17.2087 32.0863 17.9461Z" fill="#2295D7"/>
<path fill-rule="evenodd" clip-rule="evenodd" d="M12.1943 43.3635C12.4152 44.3311 12.7156 45.277 13.0961 46.1954L13.109 46.2264C15.5515 52.0884 21.0704 56.3538 28.4748 58.102C28.7635 58.1702 29.0542 58.2343 29.3467 58.2944C34.4383 59.3405 40.0911 59.1661 45.7186 57.8326C44.9542 57.1767 44.2055 56.5126 43.502 55.8579C38.8097 56.7112 34.1581 56.6647 29.9652 55.6747C29.6734 55.6058 29.3849 55.5326 29.0998 55.4552C22.8609 53.7604 18.216 50.0277 16.1003 44.9801L16.0873 44.9491C15.8063 44.2746 15.5732 43.5837 15.3878 42.879C14.7145 43.0077 13.9149 43.1452 13.0715 43.2579C12.7855 43.2962 12.4919 43.3319 12.1943 43.3635ZM71.3506 40.8195C67.6498 46.3195 62.0274 51.0725 55.3927 54.3432C54.6233 53.9216 53.8196 53.44 52.9826 52.8904C59.8064 49.8123 65.5655 45.0101 69.1209 39.4051C69.278 39.1575 69.4302 38.9092 69.5776 38.6602C72.9527 32.9591 73.7883 26.9247 71.8954 21.7602C71.8838 21.7287 71.8722 21.6972 71.8604 21.6658C71.2715 20.09 70.4411 18.6333 69.3954 17.3176C65.933 12.7026 60.0949 8.97039 53 7.12805C55.1607 7.21605 57.262 7.49555 59.2664 7.96951C59.5585 8.03859 59.8486 8.1118 60.1365 8.18915C67.4102 10.1434 72.713 14.5836 74.9005 20.5515L74.9349 20.6461C77.0762 26.5935 75.9626 33.571 71.8286 40.0881C71.673 40.3333 71.5137 40.5771 71.3506 40.8195Z" fill="#F0F1F2"/>
</svg>
