<svg width="80" height="80" viewBox="0 0 80 80" fill="none" xmlns="http://www.w3.org/2000/svg">
<rect width="80" height="80" fill="#334A5F"/>
<path fill-rule="evenodd" clip-rule="evenodd" d="M11.8105 40.937C11.9757 42.7579 12.4028 44.5223 13.0961 46.1954L13.109 46.2264C15.5515 52.0884 21.0704 56.3538 28.4748 58.102C28.7635 58.1702 29.0542 58.2343 29.3467 58.2944C36.5564 59.7756 44.8915 58.8098 52.6862 55.571L52.7311 55.5523C60.5192 52.3067 67.1642 47.041 71.3506 40.8195C71.5137 40.5771 71.673 40.3333 71.8286 40.0881C75.9626 33.571 77.0762 26.5935 74.9349 20.6461L74.9005 20.5515C72.713 14.5836 67.4102 10.1434 60.1365 8.18915C59.8486 8.1118 59.5585 8.03859 59.2664 7.96951C57.262 7.49555 55.1607 7.21605 53 7.12805C60.0949 8.97039 65.933 12.7026 69.3954 17.3176C70.4411 18.6333 71.2715 20.09 71.8604 21.6657C71.8722 21.6972 71.8838 21.7287 71.8954 21.7602C73.7884 26.9247 72.9527 32.9591 69.5776 38.6602C69.4302 38.9092 69.278 39.1575 69.1209 39.4051C65.3674 45.3224 59.1577 50.345 51.8322 53.3888L51.7872 53.4074C44.4745 56.436 36.6389 57.2505 29.9652 55.6747C29.6734 55.6058 29.385 55.5326 29.0998 55.4552C22.8609 53.7604 18.216 50.0277 16.1003 44.9801L16.0873 44.9491C15.5523 43.6651 15.1912 42.3212 15.0015 40.937H11.8105Z" fill="#F0F1F2"/>
<path fill-rule="evenodd" clip-rule="evenodd" d="M54.0653 48.2968C52.5874 49.198 51.0086 50.0159 49.3389 50.7336C40.041 54.7303 30.2715 54.6095 23.4377 51.1138C25.4532 52.3043 27.7889 53.1904 30.3693 53.7235C30.4928 53.749 30.6167 53.7737 30.741 53.7975C36.3613 54.875 42.7407 54.225 48.7676 51.9544L48.8064 51.9397C53.8307 50.0405 58.3361 47.1174 61.7908 43.5517C62.4788 42.8417 63.1251 42.1061 63.7255 41.3481C63.797 41.2579 63.8678 41.1673 63.938 41.0764L62.8327 40.6749C60.5516 43.6289 57.5391 46.2341 54.0653 48.2968Z" fill="white"/>
<path fill-rule="evenodd" clip-rule="evenodd" d="M51.6799 58.3356C49.3274 59.2113 46.8996 59.9034 44.4189 60.3876C30.6121 63.0825 18.6522 58.6564 12.2982 49.8297C15.2976 54.6676 19.8886 58.384 25.6381 60.5276C25.6669 60.5383 25.6958 60.5491 25.7248 60.5597C25.7476 60.5682 25.7705 60.5766 25.7934 60.585C33.6979 63.4826 43.1926 63.2088 52.4117 59.815L52.4834 59.7885C59.3147 57.2614 65.6222 53.1574 70.7462 47.9808C72.547 46.1615 74.2016 44.2098 75.6813 42.1474C75.7244 42.0873 75.7674 42.0272 75.8102 41.9669L74.3568 41.2749C73.5775 42.3278 72.75 43.3544 71.878 44.3506C66.6699 50.4759 59.7855 55.3255 52.2207 58.1384L52.149 58.165C51.9927 58.2228 51.8363 58.2797 51.6799 58.3356Z" fill="white"/>
<path d="M67.0045 56.9076L54.8643 64.9872C54.8643 64.9872 42.2575 55.981 39.5448 51.4195C36.8322 46.858 45.6657 46.9368 45.6657 46.9368C45.6657 46.9368 49.4168 50.4291 52.1011 52.2946C61.5196 58.8404 67.0045 56.9076 67.0045 56.9076Z" fill="white" stroke="#334A5F" stroke-width="3"/>
<path d="M32.0863 17.9461L20.8198 47.2907C20.7328 47.5172 20.7308 47.7688 20.8523 47.9789C21.0807 48.3739 21.57 49.0473 22.4823 49.6174C23.2289 50.0841 23.9505 50.35 24.4581 50.4962C24.878 50.6171 25.299 50.3896 25.4837 49.9936L41.6671 15.3109C41.8203 14.9826 42.1367 14.7635 42.499 14.7609C45.0092 14.7428 54.7394 15.3175 54.2926 25.3489C54.2913 25.3785 54.2891 25.4061 54.2843 25.4353C54.2028 25.9341 53.2617 30.9223 47.8105 33.7576C43.1114 36.2018 37.4678 37.4093 35.5721 37.7675C35.1738 37.8427 34.8604 38.1402 34.8418 38.5452C34.7473 40.5932 35.3866 47.2919 45.7559 57.0718C58.3294 68.9306 64.8631 63.9055 67.6003 60.8786C69.9613 58.2678 70.722 54.4546 70.1048 54.5837C57.2974 57.2625 56.377 56.0504 50.0619 51.8828C45.9878 49.1941 41.6594 43.1834 42.002 42.332C42.3446 41.4807 61.6624 39.4395 65.38 24.9429C69.0977 10.4463 49.5968 8.33734 39.9926 8.91218C30.6944 9.46871 22.5256 13.5407 22.0146 13.7995C21.9974 13.8082 21.9863 13.8137 21.9687 13.8217C21.421 14.0681 10.1122 19.2264 5.58623 26.9439C3.14687 31.1034 1.82359 35.8011 5.16106 39.2812C6.88422 41.078 9.06725 42.0048 12.8342 41.4043C15.1667 41.0325 16.9795 41.0039 17.1455 39.4423C17.4625 36.4623 12.5296 37.9468 13.0158 30.5399C13.2484 26.9973 15.4618 25.3697 18.1459 22.711C21.4266 19.4613 27.8563 17.476 30.9689 16.6652C31.7333 16.466 32.3695 17.2087 32.0863 17.9461Z" fill="#2295D7"/>
<path d="M7 41.4569C9.32759 42.9043 17 40.9999 17 40.9999" stroke="#334A5F"/>
</svg>
